<svg id="Layer_1" data-name="Layer 1" xmlns="http://www.w3.org/2000/svg" viewBox="0 0 129.27 103.52"><defs><style>.cls-1{fill:#6d6e71;}</style></defs><title>I</title><path class="cls-1" d="M0,67.47c1.74-1.67,3.27-3.66,5.26-4.95,4.08-2.66,8.44-4.89,12.58-7.47a4.08,4.08,0,0,0,1.59-2.75c.22-2.56.09-5.14.07-7.72a11.61,11.61,0,0,1,5.06-10.17c4.42-3,9.11-5.66,14.12-8.74,0,4.9,0,9.32,0,13.73s-.21,9,.42,13.34A14.24,14.24,0,0,0,54.75,64.85,14.82,14.82,0,0,0,67.93,50.44c.09-3.67,0-7.35,0-11.22.89-.07,1.63-.18,2.36-.18q13.64,0,27.28,0c4.16,0,5.85,1.75,5.88,6,0,2.06,0,4.12,0,6.18,0,5.4-1,6.54-6.62,7.36V69.2c0,6.57-1.8,8.44-8.27,8.59-.34,0-.68.06-1.21.11-.17,1-.27,2-.51,2.94a12.76,12.76,0,0,1-12.52,9.85c-8.41,0-16.81,0-25.22.06a8.65,8.65,0,0,0-4.08,1.07c-6.65,3.82-13.22,7.78-19.81,11.7H20.09a44.05,44.05,0,0,1-4.26-5.25C10.47,89.25,5.26,80.15,0,71.07Z"/><path class="cls-1" d="M129.27,36.05c-1.61,1.68-3,3.73-4.87,5-4.51,2.92-9.27,5.46-14.51,8.49,0-1.84,0-3.22,0-4.61-.06-7.94-4.55-12.46-12.42-12.47H61.32V35c0,5.06,0,10.12,0,15.18a8,8,0,0,1-16,.22q-.12-12.87,0-25.73c0-1.36.45-3.22,1.4-4C51.43,17,56.06,13,62.52,12.93c4.46-.07,8.94-.27,13.38.06A19.93,19.93,0,0,0,88.67,9.53C94,6.12,99.59,3.16,105.06,0h3.09c1.7,1.69,3.84,3.11,5,5.1,5.51,9.2,10.75,18.56,16.09,27.86Z"/></svg>