<svg id="Layer_1" data-name="Layer 1" xmlns="http://www.w3.org/2000/svg" viewBox="0 0 64.39 51.56"><defs><style>.cls-1{fill:#6d6e71;}</style></defs><title>IC</title><path class="cls-1" d="M0,33.61a19.63,19.63,0,0,1,2.62-2.47c2-1.32,4.2-2.43,6.27-3.72a2,2,0,0,0,.79-1.37c.11-1.27,0-2.56,0-3.84a5.82,5.82,0,0,1,2.52-5.07c2.21-1.51,4.54-2.82,7-4.35,0,2.44,0,4.64,0,6.84a50.64,50.64,0,0,0,.22,6.64,7.08,7.08,0,0,0,7.78,6,7.38,7.38,0,0,0,6.57-7.17c0-1.83,0-3.67,0-5.6.44,0,.81-.09,1.17-.09,4.53,0,9.06,0,13.59,0,2.07,0,2.91.87,2.93,3,0,1,0,2,0,3.07,0,2.69-.49,3.26-3.3,3.67,0,1.75,0,3.53,0,5.31,0,3.27-.89,4.2-4.11,4.28-.17,0-.34,0-.61,0-.08.49-.13,1-.25,1.47A6.35,6.35,0,0,1,37,45.17c-4.18,0-8.37,0-12.56,0a4.36,4.36,0,0,0-2,.54c-3.31,1.9-6.59,3.87-9.87,5.82H10A22.82,22.82,0,0,1,7.88,49C5.21,44.46,2.62,39.92,0,35.4Z"/><path class="cls-1" d="M64.39,18A15.37,15.37,0,0,1,62,20.43c-2.24,1.46-4.61,2.72-7.23,4.23,0-.91,0-1.6,0-2.3,0-3.95-2.26-6.2-6.19-6.21h-18v1.29c0,2.52,0,5,0,7.57a4,4,0,0,1-8,.1q-.06-6.41,0-12.81a2.87,2.87,0,0,1,.69-2c2.33-1.85,4.64-3.83,7.85-3.88,2.22,0,4.46-.14,6.67,0a10,10,0,0,0,6.36-1.72C46.81,3.05,49.6,1.57,52.33,0h1.54a15.06,15.06,0,0,1,2.51,2.54c2.74,4.58,5.35,9.25,8,13.88Z"/></svg>