<svg id="Layer_1" data-name="Layer 1" xmlns="http://www.w3.org/2000/svg" viewBox="0 0 49.05 44.39"><defs><style>.cls-1{fill:#6d6e71;}</style></defs><title>IC</title><path class="cls-1" d="M24.36,44.39c-1.76,0-3.23-1.44-4.18-2.37-.22-.22-.42-.42-.58-.56C16.74,39,14,36.31,11.35,33.72L9.54,31.94l-.06-.05C9.07,31.45-.7,21.07,0,11.85c.09-1.08.53-4.79,2.62-7.36h0a12.74,12.74,0,0,1,3.56-3,8.2,8.2,0,0,1,.82-.46l1.5-.6a11.17,11.17,0,0,1,8.34.85,17.19,17.19,0,0,1,6.35,5.93L24,8.49c.11.19.22.38.32.57,4.09-6.93,9.43-10,15.2-8.61C46.28,2.05,50.31,9,48.69,16.29l0,.09A35.05,35.05,0,0,1,43.24,28,60.88,60.88,0,0,1,31.89,39.73c-1,.77-2,1.52-3,2.24l-.68.53a12.16,12.16,0,0,1-2.4,1.58A3.41,3.41,0,0,1,24.36,44.39Z"/></svg>