<svg id="Layer_1" data-name="Layer 1" xmlns="http://www.w3.org/2000/svg" viewBox="0 0 46.67 50.38"><defs><style>.cls-1{fill:#6d6e71;}</style></defs><title>IC</title><path class="cls-1" d="M27.9,50.38c-2.13-.69-4.25-1.39-6.38-2.07C15.77,46.46,10,44.65,4.28,42.75A5.84,5.84,0,0,1,.62,39a8.64,8.64,0,0,1-.28-5.59,10.1,10.1,0,0,1,.79-1.74.63.63,0,0,0,0-.74A9.23,9.23,0,0,1,0,25.72a13.54,13.54,0,0,1,.33-2.85,9.48,9.48,0,0,1,2.46-4.08c2-2.21,4-4.47,6-6.71q2.52-2.78,5-5.56c1.71-1.89,3.42-3.78,5.1-5.7A2.23,2.23,0,0,1,21.38.08C26.1,1.17,30.83,2.23,35.56,3.3L45,5.44a1.81,1.81,0,0,1,1.11,3.09c-1.33,1.61-2.7,3.19-4,4.78l-5.28,6.25c-1.37,1.61-2.75,3.22-4.12,4.84s-2.68,3.16-4,4.75a1.94,1.94,0,0,1-2.42.76L6.73,24A2,2,0,0,0,4,25.74a6.19,6.19,0,0,0,.25,2.77,1.57,1.57,0,0,0,1.15,1.12c3.54,1,7.07,2.12,10.59,3.2L27.6,36.41a.58.58,0,0,0,.14,0l6.78-8.39,7.72-9.54a1.06,1.06,0,0,0,.25-.89,6.85,6.85,0,0,1,.64-3.87,1.64,1.64,0,0,1,1.66-.94A2,2,0,0,1,46.47,14a1.94,1.94,0,0,1,.06,1.53,3.31,3.31,0,0,0,0,2.34,2.35,2.35,0,0,1-.09,1.52,13.39,13.39,0,0,0-.8,4.81,7.69,7.69,0,0,0,.7,3.14A2.27,2.27,0,0,1,46,30.07c-1.92,2.31-3.81,4.65-5.72,7l-6.1,7.42c-1.4,1.7-2.78,3.41-4.21,5.08a5.8,5.8,0,0,1-1.17.84Zm13.86-25.2-2.17,2.69-6,7.47c-1.22,1.5-2.43,3-3.66,4.51a1.84,1.84,0,0,1-1.9.75c-.46-.1-.91-.23-1.36-.37Q15.83,36.89,5,33.54a.46.46,0,0,0-.65.27,4.5,4.5,0,0,0,0,4.06,2.09,2.09,0,0,0,1.36,1.31c2.29.71,4.57,1.45,6.86,2.18q7.36,2.34,14.74,4.7a.54.54,0,0,0,.67-.17l5-6.11q3.26-4,6.52-8c1-1.17,1.92-2.33,2.87-3.5.1-.13.22-.33.18-.46C42.32,27,42,26.11,41.76,25.18ZM30.81,13a2,2,0,0,0,1.53-.72l1.24-1.53a.52.52,0,0,0-.13-.84,1.76,1.76,0,0,0-.58-.25l-4.28-1c-2.7-.65-5.39-1.31-8.09-2a1.92,1.92,0,0,0-2,.65c-.39.46-.76.94-1.14,1.42a.59.59,0,0,0,.23,1,2.11,2.11,0,0,0,.55.19l9.71,2.36C28.8,12.57,29.81,12.79,30.81,13Z"/></svg>