<svg id="Layer_1" data-name="Layer 1" xmlns="http://www.w3.org/2000/svg" viewBox="0 0 77.21 78.35"><defs><style>.cls-1{fill:#6d6e71;}</style></defs><title>IC</title><path class="cls-1" d="M39.33,67.92a16.55,16.55,0,0,1-1.66-21.6,11.6,11.6,0,0,1,4.82-3.83c.34-.14.68-.3,1.08-.48,0,0,0-.07,0-.1C49.72,38.42,54,30.8,54,22,54,9.84,45.9,0,35.88,0S17.73,9.84,17.73,22c0,8.73,4.21,16.27,10.3,19.82a2.86,2.86,0,0,1-1.62,2.11A15.81,15.81,0,0,1,22.21,45c-2.18.31-4.39.45-6.6.64-4,.36-6.82,2.5-9.14,5.6A23.7,23.7,0,0,0,2.33,62.05C1.51,67.1.88,72.19.17,77.25a4.24,4.24,0,0,1-.17.61v.49l.81,0H49.68l-.61-.68Z"/><path class="cls-1" d="M71,78.29V75.63L68.3,78.29Z"/><path class="cls-1" d="M70.44,46.63c-4.1-1-7.88,1.19-10.79,6.11l-.22-.41-.55-.89a12.15,12.15,0,0,0-4.5-4.21,7.9,7.9,0,0,0-5.92-.6l-1.06.42c-.2.1-.4.21-.59.33a9,9,0,0,0-2.53,2.12h0a10.3,10.3,0,0,0-1.85,5.23c-.53,6.54,6.41,13.91,6.7,14.22l0,0,1.29,1.26c1.88,1.84,3.82,3.75,5.85,5.5l.41.39a4.66,4.66,0,0,0,3,1.69,2.38,2.38,0,0,0,1-.23,8.63,8.63,0,0,0,1.7-1.12l.49-.37L65,74.51a43.39,43.39,0,0,0,8-8.35,24.76,24.76,0,0,0,3.86-8.23v-.06C78.1,52.7,75.24,47.76,70.44,46.63Z"/></svg>