<?xml version="1.0"?>
<svg xmlns="http://www.w3.org/2000/svg" xmlns:xlink="http://www.w3.org/1999/xlink" xmlns:svgjs="http://svgjs.com/svgjs" version="1.1" width="512" height="512" x="0" y="0" viewBox="0 0 512 512" style="enable-background:new 0 0 512 512" xml:space="preserve" class=""><g>
<g xmlns="http://www.w3.org/2000/svg">
	<g>
		<path d="M504.396,87.657h-79.583c-4.199,0-7.604,3.405-7.604,7.604s3.405,7.604,7.604,7.604h59.891L256,310.442L27.296,102.865    h362.031c4.199,0,7.604-3.405,7.604-7.604s-3.405-7.604-7.604-7.604H7.604C3.405,87.657,0,91.062,0,95.261v321.477    c0,4.199,3.405,7.604,7.604,7.604h496.792c4.199,0,7.604-3.405,7.604-7.604V95.261C512,91.061,508.595,87.657,504.396,87.657z     M27.355,409.134l53.268-48.342c3.109-2.823,3.343-7.631,0.52-10.741c-2.823-3.109-7.631-3.343-10.741-0.52l-55.195,50.09V112.431    l158.217,143.601L95.45,326.798c-3.109,2.823-3.343,7.631-0.52,10.741s7.631,3.343,10.741,0.52l79.068-71.757l66.149,60.039    c1.451,1.317,3.281,1.974,5.112,1.974s3.661-0.658,5.111-1.974l66.15-60.04l157.385,142.833H27.355z M496.792,399.621    L338.575,256.032l158.217-143.601V399.621z" fill="#aadac7" data-original="#000000" style="" class=""/>
	</g>
</g>
<g xmlns="http://www.w3.org/2000/svg">
</g>
<g xmlns="http://www.w3.org/2000/svg">
</g>
<g xmlns="http://www.w3.org/2000/svg">
</g>
<g xmlns="http://www.w3.org/2000/svg">
</g>
<g xmlns="http://www.w3.org/2000/svg">
</g>
<g xmlns="http://www.w3.org/2000/svg">
</g>
<g xmlns="http://www.w3.org/2000/svg">
</g>
<g xmlns="http://www.w3.org/2000/svg">
</g>
<g xmlns="http://www.w3.org/2000/svg">
</g>
<g xmlns="http://www.w3.org/2000/svg">
</g>
<g xmlns="http://www.w3.org/2000/svg">
</g>
<g xmlns="http://www.w3.org/2000/svg">
</g>
<g xmlns="http://www.w3.org/2000/svg">
</g>
<g xmlns="http://www.w3.org/2000/svg">
</g>
<g xmlns="http://www.w3.org/2000/svg">
</g>
</g></svg>
